<svg width="112" height="93" viewBox="0 0 112 93" fill="none" xmlns="http://www.w3.org/2000/svg">
<g clip-path="url(#clip0_225_148)" filter="url(#filter0_d_225_148)">
<path d="M105.989 2.51853C108.648 6.81373 107.668 11.0172 106.263 14.7725C104.239 19.9702 101.636 25.0075 98.6075 29.5967C84.1029 50.3718 63.8443 62.5454 39.1159 67.1705C32.8246 68.324 26.2643 68.596 19.1109 69.2904C22.3113 75.2031 28.7834 78.4281 32.4205 84.3517C29.4913 85.0069 27.636 83.5021 26.0645 82.296C19.6365 77.3226 13.2121 72.2034 6.937 66.9423C3.94314 64.3882 3.69983 62.4866 6.38568 59.93C11.9103 54.529 18.544 51.3429 26.1378 50.5138C26.4289 50.5211 26.8545 50.9692 27.5675 51.5704C25.8086 57.7954 17.8406 56.1365 14.7939 61.4542C24.7773 64.0387 34.427 62.5325 43.8077 60.1447C53.6286 57.6222 63.035 54.2144 71.4777 48.5954C79.7712 43.1184 86.5005 36.1439 92.8116 28.43C99.2645 20.8654 103.415 12.2221 105.989 2.51853Z" fill="white"/>
</g>
<defs>
<filter id="filter0_d_225_148" x="0" y="0" width="111.811" height="94.3945" filterUnits="userSpaceOnUse" color-interpolation-filters="sRGB">
<feFlood flood-opacity="0" result="BackgroundImageFix"/>
<feColorMatrix in="SourceAlpha" type="matrix" values="0 0 0 0 0 0 0 0 0 0 0 0 0 0 0 0 0 0 127 0" result="hardAlpha"/>
<feOffset dy="4"/>
<feGaussianBlur stdDeviation="2"/>
<feComposite in2="hardAlpha" operator="out"/>
<feColorMatrix type="matrix" values="0 0 0 0 0 0 0 0 0 0 0 0 0 0 0 0 0 0 0.25 0"/>
<feBlend mode="normal" in2="BackgroundImageFix" result="effect1_dropShadow_225_148"/>
<feBlend mode="normal" in="SourceGraphic" in2="effect1_dropShadow_225_148" result="shape"/>
</filter>
<clipPath id="clip0_225_148">
<rect width="83.8575" height="101.729" fill="white" transform="translate(107.811 2.56445) rotate(91.4446)"/>
</clipPath>
</defs>
</svg>
