<svg width="104" height="87" viewBox="0 0 104 87" fill="none" xmlns="http://www.w3.org/2000/svg">
<g clip-path="url(#clip0_164_420)">
<path d="M101.989 2.51853C104.648 6.81373 103.668 11.0172 102.263 14.7725C100.239 19.9702 97.6358 25.0075 94.6075 29.5967C80.1029 50.3718 59.8443 62.5454 35.1159 67.1705C28.8246 68.324 22.2643 68.596 15.1109 69.2904C18.3113 75.2031 24.7834 78.4281 28.4205 84.3517C25.4913 85.0069 23.636 83.5021 22.0645 82.296C15.6365 77.3226 9.21213 72.2034 2.937 66.9423C-0.0568585 64.3882 -0.300169 62.4866 2.38568 59.93C7.91026 54.529 14.544 51.3429 22.1378 50.5138C22.4289 50.5211 22.8545 50.9692 23.5675 51.5704C21.8086 57.7954 13.8406 56.1365 10.7939 61.4542C20.7773 64.0387 30.427 62.5325 39.8077 60.1447C49.6286 57.6222 59.035 54.2144 67.4777 48.5954C75.7712 43.1184 82.5005 36.1439 88.8116 28.43C95.2645 20.8654 99.4146 12.2221 101.989 2.51853Z" fill="#FFF1E0"/>
</g>
<defs>
<clipPath id="clip0_164_420">
<rect width="83.8575" height="101.729" fill="white" transform="translate(103.811 2.56445) rotate(91.4446)"/>
</clipPath>
</defs>
</svg>
