<svg width="212" height="27" viewBox="0 0 212 27" fill="none" xmlns="http://www.w3.org/2000/svg">
<path d="M122.656 15.7129C114.097 17.1802 105.416 18.4026 96.8576 18.4026C92.4561 18.4026 88.9104 17.7917 84.9982 15.835C82.7972 14.6126 80.5967 13.0231 78.1513 12.5338C74.3607 11.6785 70.3264 13.1453 66.658 14.2461C62.7458 15.4685 56.0211 18.7698 51.864 17.7917C45.7507 16.2022 52.4754 9.1106 50.6413 4.83129C48.9296 0.796565 44.1613 0.307485 40.371 0.552025C35.1136 0.918808 29.6116 2.63054 24.8433 4.95359C17.6296 8.37704 10.7827 13.7568 2.59092 14.6126C0.26787 14.857 0.26787 18.5248 2.59092 18.2805C16.407 16.9358 26.9218 3.85318 41.1046 4.21996C51.9863 4.4645 42.9386 13.1453 45.5062 18.1583C46.8511 20.9702 49.9078 21.5817 52.7199 21.5817C57.2437 21.4595 61.8899 19.6256 66.1692 18.4026C72.5268 16.4465 76.3174 15.4685 82.3085 18.8919C94.29 25.6167 110.551 21.8261 123.512 19.6256C125.957 18.8919 124.979 15.3463 122.656 15.7129Z" fill="#FFF1E0"/>
<path d="M208.362 12.5341C200.537 15.9575 192.712 19.7481 184.276 21.582C180.241 22.4379 174.25 23.4159 170.949 20.2368C167.403 16.9361 169.604 13.1456 168.748 9.11089C167.403 2.26404 156.766 3.85346 151.875 4.83157C140.505 7.03238 130.357 13.8792 119.108 16.4468C116.785 16.9361 117.763 20.3596 120.086 19.9925C132.679 18.1585 141.361 10.5781 152.853 8.37732C155.788 7.88824 160.067 7.15468 163.002 8.13278C165.936 9.11089 165.08 10.8226 164.958 13.2677C164.836 16.4468 165.446 19.6259 167.648 22.0713C177.429 33.3197 199.926 20.1146 210.196 15.7131C212.397 14.7351 210.563 11.5562 208.362 12.5341Z" fill="#FFF1E0"/>
</svg>
