<svg width="76" height="68" viewBox="0 0 76 68" fill="none" xmlns="http://www.w3.org/2000/svg">
<path d="M57.4396 68.0004H18.4148C13.6201 68.0004 9.73584 64.1162 9.73584 59.3215C9.73584 54.5269 13.6201 50.6426 18.4148 50.6426H57.4396C62.2343 50.6426 66.1185 54.5269 66.1185 59.3215C66.1185 64.1162 62.2343 68.0004 57.4396 68.0004Z" fill="#D9FF6B"/>
<path d="M67.2107 51.0671C64.2368 51.0671 61.3236 49.4891 59.6849 46.758L40.2028 13.0133C37.8358 8.88626 39.2317 3.54538 43.3588 1.1784C47.4858 -1.18858 52.8267 0.207331 55.1937 4.33438L74.6758 38.079C77.0428 42.2061 75.6468 47.547 71.5198 49.9139C70.1239 50.7029 68.6673 51.0671 67.2107 51.0671Z" fill="#D9FF6B"/>
<path d="M8.64311 51.0667C7.18651 51.0667 5.66923 50.7026 4.33401 49.9136C0.206964 47.5466 -1.24965 42.2057 1.17803 38.0787L20.6601 4.334C23.0271 0.206959 28.368 -1.24965 32.495 1.17803C36.6221 3.54501 38.0787 8.88589 35.651 13.0129L16.1689 46.7576C14.5909 49.4887 11.6777 51.0667 8.64311 51.0667Z" fill="#D9FF6B"/>
</svg>
