<svg width="75" height="68" viewBox="0 0 75 68" fill="none" xmlns="http://www.w3.org/2000/svg">
<path d="M69.6294 42.298C66.6717 39.3403 62.7281 37.8615 58.8393 37.9162C56.5389 37.9162 54.4575 36.7112 53.3073 34.7394L50.021 29.0979C48.8707 27.1261 48.8707 24.6613 50.021 22.6895C53.4168 16.9384 52.65 9.37978 47.6657 4.39549C41.8051 -1.46516 32.2746 -1.46516 26.3592 4.39549C21.3749 9.37978 20.6082 16.8836 24.004 22.6895C25.1543 24.6613 25.1543 27.1261 24.004 29.0979L20.7177 34.7394C19.5675 36.7112 17.4861 37.971 15.1857 37.9162C11.2969 37.8615 7.3532 39.3403 4.39549 42.298C-1.46516 48.1587 -1.46516 57.6891 4.39549 63.6045C10.2561 69.4652 19.7866 69.4652 25.702 63.6045C26.6879 62.6186 27.5095 61.5231 28.1667 60.3729C29.317 58.4011 31.3983 57.1413 33.6987 57.1413H40.2167C42.5171 57.1413 44.6532 58.3463 45.7487 60.3729C46.4059 61.5231 47.2275 62.6186 48.2134 63.6045C54.0741 69.4652 63.6045 69.4652 69.5199 63.6045C75.4901 57.6891 75.4901 48.1587 69.6294 42.298ZM28.112 38.8474L31.3983 33.2058C32.5485 31.1792 34.6846 30.029 37.0398 30.029C37.0946 30.029 37.1494 30.029 37.2042 30.029C39.5046 30.029 41.6408 31.234 42.8458 33.2058L46.1321 38.8474C47.2823 40.8192 47.2823 43.2839 46.0773 45.2557C46.0225 45.3105 46.0225 45.3653 46.0225 45.4201C44.8723 47.4466 42.7362 48.7064 40.4358 48.7064H33.9178C31.6174 48.7064 29.4813 47.4466 28.3311 45.4201C28.3311 45.3653 28.2763 45.3105 28.2763 45.2557C26.9617 43.3387 26.9618 40.8739 28.112 38.8474Z" fill="#FF5858"/>
</svg>
