<svg width="74" height="68" viewBox="0 0 74 68" fill="none" xmlns="http://www.w3.org/2000/svg">
<path d="M27.8484 31.3851C29.7505 32.472 30.4027 34.9176 29.3157 36.8198C28.2288 38.7219 25.7832 39.3741 23.8811 38.2871L16.1095 33.722C12.2509 31.4395 7.46842 34.5372 7.95754 38.9936L8.06624 40.0262C8.55536 44.3196 6.70759 48.5586 3.28375 51.1129C-4.32476 56.8193 2.52288 68.6668 11.2727 64.9169C15.24 63.2322 19.8051 63.7213 23.2833 66.3299L24.0985 66.9277C27.6853 69.5907 32.7939 66.9821 32.7396 62.5257L32.6852 53.5041C32.6852 51.2759 34.4786 49.5369 36.6525 49.5369C38.8264 49.5369 40.6198 51.3303 40.6198 53.5041L40.5655 62.5257C40.5111 66.9821 45.6197 69.5907 49.2066 66.9277L50.0218 66.3299C53.5 63.7757 58.0651 63.2322 62.0323 64.9169C70.7821 68.6668 77.6298 56.8193 70.0213 51.1129C66.5431 48.5043 64.7497 44.3196 65.2388 40.0262L65.3475 38.9936C65.8366 34.5372 61.0541 31.4395 57.1955 33.722L49.4239 38.2871C47.5218 39.3741 45.0762 38.7219 43.9893 36.8198C42.9024 34.9176 43.5545 32.472 45.4567 31.3851L53.3369 26.9287C57.2499 24.7005 56.9238 19.0484 52.8478 17.255L51.9239 16.8202C47.9566 15.0812 45.1849 11.3856 44.6958 7.09222C43.6089 -2.36407 29.8592 -2.36407 28.7723 7.09222C28.2831 11.3856 25.5115 15.0812 21.5442 16.8202L20.6203 17.255C16.5443 19.0484 16.2182 24.7548 20.1312 26.9287L27.8484 31.3851Z" fill="#F092FF"/>
</svg>
